<svg width="174" height="61" viewBox="0 0 174 61" fill="none" xmlns="http://www.w3.org/2000/svg"><rect width="174" height="61" rx="12" fill="#F2F6FA"/><mask id="mask0_149_1451" style="mask-type:luminance" maskUnits="userSpaceOnUse" x="56" y="13" width="62" height="35"><path d="M117 13.1484H56.998V47.7916H117V13.1484Z" fill="#fff"/></mask><g mask="url(#mask0_149_1451)" fill="#000"><path d="M82.1827 47.7917C74.1907 47.7917 66.2037 47.7917 58.2117 47.7917C57.6356 47.7917 57.2743 47.5329 57.123 46.9764C57.0595 46.7518 57.0205 46.5126 57.0205 46.2831C57.0156 40.5955 57.0058 34.9079 57.0254 29.2202C57.0302 27.5066 57.1718 25.8028 57.4452 24.1087C57.6698 22.7271 57.9822 21.3699 58.4949 20.0712C59.3785 17.8352 60.7309 15.9703 62.796 14.6765C63.9579 13.9442 65.2321 13.5097 66.5845 13.29C67.5511 13.1289 68.5227 13.1484 69.4991 13.1484C81.6213 13.1484 93.7483 13.1387 105.871 13.1582C108.097 13.1582 110.142 13.8075 111.939 15.1599C113.491 16.3267 114.58 17.8548 115.342 19.627C116.001 21.1599 116.406 22.7564 116.606 24.4065C116.728 25.3878 116.855 26.374 116.894 27.3602C116.963 28.9908 117.016 30.6263 116.982 32.2569C116.933 34.4831 116.723 36.6947 116.172 38.8623C115.654 40.8933 114.839 42.7778 113.448 44.3742C111.807 46.2538 109.732 47.3328 107.272 47.6843C106.744 47.7575 106.203 47.7868 105.67 47.7868C97.8444 47.7917 90.0136 47.7868 82.1876 47.7868L82.1827 47.7917ZM99.1723 30.4847C99.2553 31.8614 99.3139 33.2431 99.4262 34.6198C99.5483 36.0893 99.8119 37.5344 100.398 38.9014C100.993 40.2977 101.936 41.3473 103.43 41.8014C104.718 42.1919 106.027 42.1968 107.33 41.8746C108.448 41.5963 109.342 40.9861 110.006 40.0438C110.469 39.3847 110.782 38.6573 111.011 37.8908C111.534 36.1333 111.714 34.322 111.773 32.501C111.851 30.1039 111.851 27.7019 111.495 25.3195C111.314 24.1087 111.055 22.9224 110.528 21.8092C109.815 20.3104 108.678 19.3389 107.037 19.0069C106.144 18.8263 105.246 18.8116 104.342 18.9435C102.731 19.1729 101.511 19.9785 100.715 21.4089C100.017 22.6685 99.7191 24.0501 99.5238 25.4513C99.2895 27.1209 99.2212 28.8004 99.1723 30.4896V30.4847ZM69.8457 33.4042C69.8408 33.4725 69.8359 33.5262 69.831 33.5848C69.8018 34.2097 69.7871 34.8346 69.7334 35.4595C69.6748 36.1333 69.5723 36.8021 69.1915 37.388C68.7082 38.13 67.6878 38.174 67.1752 37.4514C66.975 37.1731 66.8335 36.8412 66.7407 36.5092C66.4038 35.318 66.3892 34.0828 66.355 32.8574C66.3208 31.7101 66.3111 30.5628 66.3404 29.4155C66.3794 28.0583 66.4478 26.706 66.5552 25.3536C66.604 24.7141 66.7993 24.0989 67.185 23.557C67.6732 22.8687 69.1231 22.649 69.6211 23.8011C69.6797 23.9427 69.7432 24.0843 69.7822 24.2356C70.041 25.1535 70.0752 26.0957 70.0849 27.038C70.0849 27.2039 70.0849 27.3748 70.0849 27.5359H74.2054C74.2054 27.4236 74.2054 27.3358 74.2054 27.2479C74.1761 26.54 74.1663 25.8321 74.1029 25.1291C73.9955 23.9183 73.7855 22.7271 73.268 21.614C72.648 20.2714 71.6423 19.3731 70.1826 19.0411C68.9913 18.7677 67.7903 18.7824 66.6089 19.0899C65.4762 19.3829 64.5877 20.0322 63.9335 21.0037C63.538 21.5944 63.2549 22.2438 63.045 22.9224C62.5665 24.4504 62.3615 26.0322 62.2834 27.6238C62.1564 30.143 62.1418 32.6621 62.4591 35.1764C62.63 36.5531 62.8936 37.9055 63.4941 39.1699C64.2118 40.6834 65.3395 41.6842 67.0239 41.9869C68.0393 42.1724 69.0499 42.1333 70.0507 41.8892C71.1053 41.6305 71.9499 41.0642 72.5699 40.1659C72.9751 39.5751 73.2436 38.9258 73.4291 38.2374C73.8539 36.6801 73.9564 35.0836 73.9515 33.4823C73.9515 33.4628 73.9369 33.4384 73.9222 33.4042H69.8457ZM97.1463 19.1339C97.0291 19.1339 96.9412 19.1339 96.8533 19.1339C93.9632 19.1339 91.0779 19.1339 88.1877 19.129C87.9338 19.129 87.8752 19.1973 87.8752 19.4414C87.8801 26.7987 87.8752 34.1511 87.8801 41.5084C87.8801 41.6012 87.8899 41.6988 87.8947 41.8062H97.1365V37.6906C97.0193 37.6906 96.9217 37.6906 96.8241 37.6906C95.2716 37.6906 93.7142 37.6858 92.1617 37.6955C91.9225 37.6955 91.8639 37.6223 91.8639 37.3928C91.8736 35.8794 91.8736 34.366 91.8639 32.8525C91.8639 32.6084 91.9225 32.5352 92.1763 32.5352C93.6409 32.5449 95.1056 32.5352 96.5702 32.5449C96.7948 32.5449 96.8826 32.4961 96.8778 32.252C96.868 31.0657 96.868 29.8744 96.8778 28.6881C96.8778 28.4782 96.8241 28.4098 96.6044 28.4098C95.1251 28.4196 93.6409 28.4098 92.1617 28.4196C91.9225 28.4196 91.8639 28.3463 91.8639 28.1169C91.8736 26.6034 91.8736 25.09 91.8639 23.5766C91.8639 23.3325 91.9225 23.2592 92.1763 23.2592C93.7288 23.269 95.2862 23.2641 96.8387 23.2641C96.9363 23.2641 97.0291 23.2641 97.1414 23.2641V19.1339H97.1463ZM76.6367 19.1485V41.8062H85.6441V37.6906H85.3658C83.911 37.6906 82.4512 37.6906 80.9964 37.6906C80.6058 37.6906 80.6156 37.7492 80.6156 37.3098C80.6156 31.3781 80.6156 25.4513 80.6156 19.5196C80.6156 13.5878 80.6156 19.2803 80.6156 19.1485H76.6415H76.6367Z"/><path d="M107.708 30.5141C107.645 31.8713 107.601 33.2285 107.508 34.5809C107.459 35.3327 107.332 36.0797 107.03 36.7827C106.824 37.2514 106.546 37.6517 106.053 37.8519C105.379 38.1301 104.647 37.8714 104.237 37.2172C103.939 36.7387 103.783 36.2115 103.685 35.6647C103.368 33.9218 103.339 32.1545 103.358 30.392C103.373 29.1178 103.412 27.8387 103.514 26.5694C103.578 25.8224 103.773 25.0852 103.944 24.3529C104.003 24.099 104.154 23.8549 104.3 23.6401C104.896 22.7711 106.092 22.7613 106.722 23.6108C107.054 24.06 107.239 24.5775 107.318 25.1145C107.44 26.0079 107.532 26.9013 107.61 27.7997C107.65 28.2537 107.645 28.7077 107.654 29.1666C107.659 29.6158 107.654 30.0601 107.654 30.5092C107.669 30.5092 107.689 30.5092 107.703 30.5092L107.708 30.5141Z"/></g></svg>