<svg width="175" height="61" viewBox="0 0 175 61" fill="none" xmlns="http://www.w3.org/2000/svg"><rect width="175" height="61" rx="12" fill="#F2F6FA"/><mask id="mask0_149_1428" style="mask-type:luminance" maskUnits="userSpaceOnUse" x="55" y="13" width="65" height="34"><path d="M120 13.5H55V46.5H120V13.5Z" fill="#fff"/></mask><g mask="url(#mask0_149_1428)"><path d="M62.9034 33.0953C65.7269 35.5474 74.0714 39.64 74.2063 39.7025C75.2943 40.2286 73.5859 42.8054 72.7316 42.7876C71.2389 42.7876 62.274 37.4377 59.2437 34.7626C59.0099 36.766 58.9257 38.7836 58.9919 40.7992C58.9919 41.4679 57.9129 41.4858 56.8698 41.5482C55.8267 41.6106 55.0714 41.5482 55.0175 41.0221C54.6848 30.6343 59.1447 20.3178 65.2862 15.3691C69.0808 12.3107 75.573 12.7565 74.6109 18.5702C73.8106 23.3762 69.1168 30.0369 62.9214 33.0953H62.9034ZM60.017 30.8572C66.8239 28.6102 73.0103 18.7039 71.0321 17.0097C69.0539 15.3156 62.4718 21.3432 60.017 30.8572ZM118.672 24.8563C117.835 24.5621 116.675 24.5442 116.522 25.2486C115.488 29.8675 113.699 34.9321 111.604 34.2901C110.704 34.0048 110.129 33.0239 112.089 27.0676C112.305 26.3989 111.793 26.0779 111.028 25.7926C110.264 25.5073 109.401 25.641 109.23 26.1136C107.135 31.2317 105.462 34.1385 103.952 33.8442C102.261 33.5055 104.806 28.1911 105.183 27.4243C105.561 26.6575 104.563 26.2651 104.068 26.069C103.574 25.8728 102.765 25.534 102.486 26.069C102.378 26.2473 102.135 26.7377 101.991 27.0231C102.072 24.9099 100.031 23.6972 97.8551 24.6334C93.8897 26.3454 91.7586 30.6967 91.4888 33.2647C91.3269 34.7716 91.7226 36.4657 93.2332 37.179C96.0657 38.5076 99.1769 35.1461 100.031 33.3806C99.9412 35.4939 101.317 36.7957 103.061 36.7332C105.444 36.653 107.162 34.3436 107.647 33.3182C107.27 36.8045 110.606 38.1331 113.042 36.439C111.6 39.2 109.785 41.7529 107.647 44.027C107.036 44.6957 107.881 45.5339 108.187 45.8103C108.69 46.3007 109.428 46.702 109.859 46.3899C111.163 45.4982 113.726 42.6627 116.576 37.1077C118.148 33.7575 119.281 30.2216 119.948 26.5861C120.128 25.6945 119.867 25.2576 118.708 24.8563H118.672ZM95.3284 33.8978C94.6 33.3895 95.3284 31.1604 96.1736 29.8407C97.3426 27.9237 99.1409 26.5059 99.9142 27.1122C101.11 28.0039 99.4556 30.3668 98.6104 31.7667C97.7652 33.1666 96.2725 34.5576 95.3284 33.8978ZM85.5451 31.6508C82.7936 36.1715 79.2507 37.5803 76.7959 37.6516C76.0665 37.6867 75.338 37.5659 74.6598 37.2976C73.9814 37.0293 73.3693 36.6195 72.8645 36.0962C72.3598 35.5728 71.9743 34.9481 71.7342 34.2642C71.494 33.5803 71.4049 32.8533 71.4727 32.1323C71.5832 30.5105 72.1463 28.9512 73.0991 27.6285C74.0518 26.3059 75.3567 25.272 76.8679 24.6423C79.8622 23.5367 82.5867 25.7034 82.0023 28.209C81.8537 28.9519 81.5572 29.6579 81.1303 30.2858C80.7033 30.9138 80.1544 31.451 79.5156 31.8661C78.8768 32.2813 78.1609 32.5659 77.4098 32.7034C76.6588 32.841 75.8876 32.8287 75.1415 32.6673C75.2943 34.4506 77.2186 35.4403 79.9342 34.0583C81.7326 33.1666 83.7287 31.3833 85.617 26.8715C87.0197 23.4832 89.016 16.5193 89.9062 14.9768C90.167 14.5309 91.0932 14.6558 91.8844 15.0392C92.6757 15.4226 93.485 15.9754 93.2332 16.6709C91.5921 20.7814 90.331 25.0313 89.4656 29.3682C88.7572 32.9103 88.8462 36.5639 89.7263 40.068C89.9242 40.8081 88.9801 41.2718 88.4046 41.3877C88.0572 41.49 87.6861 41.4813 87.344 41.3629C87.0019 41.2445 86.706 41.0223 86.4982 40.7279C85.0056 38.0529 85.1674 34.7626 85.5181 31.6686L85.5451 31.6508ZM75.0785 30.6521C77.848 31.5438 80.3028 28.5389 79.4485 27.3173C78.5943 26.0957 75.4472 27.4421 75.0785 30.6521Z" fill="#000"/></g></svg>