<svg width="175" height="61" viewBox="0 0 175 61" fill="none" xmlns="http://www.w3.org/2000/svg"><rect width="175" height="61" rx="12" fill="#F2F6FA"/><path fill-rule="evenodd" clip-rule="evenodd" d="M57.2 23.1L36.4 31.5C36.4 31.5 36.4 31.5 36.4 31.6C36.4 31.6 36.4 31.6 36.4 31.7L42.6 34C42.6 34 42.6 34 42.7 34L54.4 25.4L44 34.5V39.4C44 39.4 44 39.4 44 39.5C44 39.5 44 39.5 44.1 39.5C44.1 39.5 44.1 39.5 44.2 39.5C44.2 39.5 44.2 39.5 44.3 39.5L47.3 35.8C47.3 35.8 47.3 35.8 47.4 35.8C47.4 35.8 47.4 35.8 47.5 35.8L51.3 37.2C51.3 37.2 51.4 37.2 51.5 37.2C51.5 37.2 51.5 37.2 51.6 37.1L57.3 23.2C57.3 23.2 57.3 23.2 57.3 23.1C57.3 23.1 57.3 23.1 57.3 23C57.3 23 57.3 23 57.2 23C57.1 23 57.2 23 57.1 23" fill="#000"/><path d="M63.8 24.7002H61.9V36.3002H63.8V24.7002Z" fill="#000"/><path d="M69.7 28.0001C68.8 28.0001 67.9 28.3001 67.3 29.0001V28.1001H65.5V36.3001H67.3V30.9001C67.5 30.5001 67.7 30.2001 68.1 29.9001C68.5 29.7001 68.9 29.5001 69.3 29.6001C70.4 29.6001 71.1 30.4001 71.1 31.7001V36.3001H72.9V31.4001C72.9 29.3001 71.7 27.9001 69.7 28.0001Z" fill="#000"/><path d="M80.2 28.1001L77.8 33.8001L75.3 28.1001H73.3L77 36.3001H78.6L82.2 28.1001H80.2Z" fill="#000"/><path d="M86.5 28C85.7 28 84.9 28.3 84.2 28.7C83.5 29.2 83 29.8 82.7 30.6C82.4 31.4 82.3 32.2 82.5 33.1C82.7 33.9 83.1 34.7 83.7 35.3C84.3 35.9 85 36.3 85.8 36.5C86.6 36.7 87.5 36.5 88.2 36.2C89 35.9 89.6 35.3 90.1 34.6C90.6 33.9 90.8 33.1 90.8 32.2C90.8 31.6 90.7 31.1 90.5 30.6C90.3 30.1 90 29.6 89.6 29.2C89.2 28.8 88.7 28.5 88.2 28.3C87.7 28.1 87.1 28 86.6 28H86.5ZM86.5 34.8C85.1 34.8 84.1 33.7 84.1 32.2C84.1 30.7 85.1 29.6 86.5 29.6C87.9 29.6 88.9 30.7 88.9 32.2C88.9 33.7 87.9 34.8 86.5 34.8Z" fill="#000"/><path d="M93.8 24.6001H92V26.3001H93.8V24.6001Z" fill="#000"/><path d="M93.8 28.1001H92V36.3001H93.8V28.1001Z" fill="#000"/><path d="M99.4 29.6001C99.9 29.6001 100.3 29.7001 100.7 30.0001C101.1 30.3001 101.4 30.6001 101.6 31.0001L103.1 30.1001C102.4 28.7001 101 27.8001 99.3 27.9001C96.9 27.9001 95.1 29.7001 95.1 32.2001C95.1 34.6001 96.9 36.4001 99.4 36.4001C100.2 36.4001 100.9 36.2001 101.6 35.8001C102.3 35.4001 102.8 34.8001 103.2 34.1001L101.7 33.3001C101.5 33.7001 101.2 34.1001 100.8 34.4001C100.4 34.7001 100 34.8001 99.5 34.8001C98.1 34.8001 97.1 33.7001 97 32.2001C97 30.7001 98 29.6001 99.4 29.6001Z" fill="#000"/><path d="M108.3 27.8999C105.9 27.8999 104.1 29.7999 104.1 32.1999C104.1 34.6999 105.9 36.3999 108.3 36.3999C110 36.3999 111.2 35.6999 112 34.4999L110.6 33.4999C110.2 34.1999 109.4 34.6999 108.3 34.6999C107 34.6999 105.9 33.7999 105.8 32.4999H112.1C112.1 32.1999 112.1 32.0999 112.1 31.8999C112.1 29.2999 110.3 27.8999 108.2 27.8999H108.3ZM105.9 31.1999C106.1 29.9999 107.2 29.3999 108.2 29.3999C109.2 29.3999 110.2 29.9999 110.4 31.1999H105.9Z" fill="#000"/><path d="M134.5 27.7998C134 27.7998 133.4 27.8998 132.9 28.0998C132.4 28.2998 131.9 28.5998 131.5 28.9998C131.1 29.3998 130.8 29.8998 130.6 30.3998C130.4 30.8998 130.3 31.4998 130.3 31.9998C130.3 32.5998 130.4 33.0998 130.6 33.6998C130.8 34.1998 131.1 34.6998 131.5 35.0998C131.9 35.4998 132.4 35.7998 132.9 35.9998C133.4 36.1998 134 36.2998 134.5 36.2998C135.1 36.2998 135.6 36.2998 136.1 35.9998C136.6 35.7998 137.1 35.4998 137.5 35.0998C137.9 34.6998 138.2 34.1998 138.4 33.6998C138.6 33.1998 138.7 32.5998 138.7 32.0998C138.7 31.4998 138.6 30.9998 138.4 30.3998C138.2 29.8998 137.9 29.3998 137.5 28.9998C137.1 28.5998 136.6 28.2998 136.1 28.0998C135.6 27.8998 135 27.7998 134.5 27.7998ZM134.5 34.5998C133.1 34.5998 132.1 33.4998 132.1 31.9998C132.1 30.4998 133.1 29.3998 134.5 29.3998C135.9 29.3998 136.9 30.4998 136.9 31.9998C136.9 33.4998 135.9 34.5998 134.5 34.5998Z" fill="#000"/><path d="M127.2 27.9999V28.7999C126.6 28.1999 125.8 27.8999 124.8 27.8999C122.5 27.8999 120.8 29.6999 120.8 31.9999C120.8 34.2999 122.5 36.0999 124.8 36.0999C125.8 36.0999 126.6 35.7999 127.2 35.0999V36.0999C127.2 37.3999 126.5 38.0999 125.6 38.2999C123.3 38.6999 121.9 37.9999 121.9 37.9999L121.3 39.4999C122.1 39.9999 124.7 40.1999 125.9 39.8999C127.6 39.5999 129 38.4999 129 36.1999V28.0999H127.2V27.9999ZM127.2 33.2999C126.8 33.9999 126.1 34.3999 125 34.3999C123.6 34.3999 122.6 33.2999 122.6 31.8999C122.6 30.4999 123.6 29.3999 125 29.3999C126 29.3999 126.7 29.8999 127.2 30.4999V33.1999V33.2999Z" fill="#000"/><path d="M115.5 34.7002L117.9 31.4002C118.4 30.8002 119.2 29.7002 119.3 29.4002C120 28.3002 120.1 27.1002 119.5 25.9002C119 24.9002 118.2 24.5002 117.1 24.3002C115.6 24.1002 114.1 24.8002 113.5 26.2002C113.3 26.5002 113.2 26.8002 113.2 27.2002L114.7 27.5002C114.7 27.5002 114.7 27.4002 114.7 27.3002C114.7 27.0002 114.9 26.7002 115.1 26.5002C115.3 26.3002 115.5 26.1002 115.8 26.0002C116.4 25.7002 117.2 25.8002 117.6 26.2002C118.3 26.8002 118.3 27.9002 117.8 28.6002C117.8 28.7002 113.1 34.6002 113.1 34.6002C113.1 34.6002 113.1 34.7002 113.1 34.8002V36.1002H119.9V34.5002H115.4L115.5 34.7002Z" fill="#000"/></svg>