<svg width="157" height="61" viewBox="0 0 157 61" fill="none" xmlns="http://www.w3.org/2000/svg"><rect width="157" height="61" rx="12" fill="#F2F6FA"/><mask id="mask0_149_1435" style="mask-type:luminance" maskUnits="userSpaceOnUse" x="46" y="18" width="82" height="26"><path d="M128 18.5H46V43.5H128V18.5Z" fill="#fff"/></mask><g mask="url(#mask0_149_1435)"><mask id="mask1_149_1435" style="mask-type:luminance" maskUnits="userSpaceOnUse" x="46" y="18" width="82" height="26"><path d="M128 18.5H46V43.5H128V18.5Z" fill="#fff"/></mask><g mask="url(#mask1_149_1435)" fill="#000"><path d="M65.8779 43.2256C65.466 43.1982 65.1563 42.8295 65.1563 42.4077V29.9326C65.1563 29.8554 65.0642 29.816 65.0122 29.8708L52.2132 42.9753C51.9219 43.2736 51.448 43.3096 51.1383 43.0301C50.7984 42.7249 50.7867 42.1951 51.1015 41.8728L65.3823 27.2493C65.6468 26.9784 66.0722 26.9338 66.3902 27.1722C66.5929 27.323 66.7034 27.5716 66.7034 27.8271V42.4334C66.7034 42.8878 66.3283 43.2547 65.8779 43.2239V43.2256Z"/><path d="M69.3222 43.2256C68.9103 43.1981 68.6005 42.8295 68.6005 42.4077V21.4197C68.6005 21.3409 68.5068 21.3014 68.4515 21.3563L47.3392 42.9752C47.0479 43.2735 46.574 43.3095 46.2643 43.0301C45.9244 42.7249 45.9126 42.1951 46.2274 41.8727L68.8266 18.7313C69.0911 18.4604 69.5164 18.4158 69.8346 18.6542C70.0372 18.805 70.1477 19.0537 70.1477 19.3091V42.4351C70.1477 42.8895 69.7726 43.2564 69.3222 43.2256Z"/><path d="M62.4335 43.2241C62.0216 43.1967 61.7118 42.828 61.7118 42.4062V38.4593C61.7118 38.3804 61.618 38.341 61.5645 38.3976L57.0956 42.9738C56.8043 43.2721 56.3304 43.3081 56.0206 43.0286C55.6807 42.7234 55.669 42.1936 55.9838 41.8713L61.9412 35.7709C62.2058 35.4999 62.6311 35.4554 62.9493 35.6937C63.1518 35.8446 63.2623 36.0932 63.2623 36.3487V42.432C63.2623 42.8863 62.8872 43.2532 62.4369 43.2224L62.4335 43.2241Z"/><path d="M80.3563 18.5669C80.4601 18.5669 80.5573 18.6235 80.6092 18.7161L90.6521 36.4652C90.7693 36.6727 91.0774 36.587 91.0774 36.3487V18.867C91.0774 18.7007 91.2081 18.5669 91.3704 18.5669H95.3237C95.4861 18.5669 95.6167 18.7007 95.6167 18.867V42.9188C95.6167 43.0852 95.4861 43.2189 95.3237 43.2189H89.5856C89.4818 43.2189 89.3846 43.1623 89.3327 43.0697L79.3618 25.3703C79.2446 25.1628 78.9365 25.2486 78.9365 25.4869V42.9205C78.9365 43.0869 78.8058 43.2206 78.6435 43.2206H74.6534C74.491 43.2206 74.3604 43.0869 74.3604 42.9205V18.867C74.3604 18.7007 74.491 18.5669 74.6534 18.5669H80.3563Z"/><path fill-rule="evenodd" clip-rule="evenodd" d="M98.3962 42.1336C97.4937 41.2231 97.0449 40.0521 97.0449 38.6188C97.0449 36.9676 97.6142 35.6508 98.7561 34.6666C99.8964 33.6825 101.539 33.1921 103.684 33.1921H106.992C107.162 33.1921 107.292 33.0327 107.26 32.863C107.111 32.0742 106.78 31.4502 106.268 30.9889C105.686 30.4677 105.05 30.2054 104.161 30.2054C102.261 30.2054 101.574 30.6683 100.894 32.3931C100.842 32.5252 100.698 32.5955 100.565 32.5543L97.4468 31.5839C97.2978 31.5376 97.2174 31.3713 97.271 31.2221C97.7448 29.8745 98.2857 28.9212 99.3857 28.057C100.67 27.0471 102.232 26.5996 104.263 26.5996C106.797 26.5996 108.424 27.2255 109.69 28.4754C110.956 29.7253 111.589 31.4193 111.589 33.5556V42.9291C111.589 43.0834 111.466 43.2069 111.317 43.2069H107.65C107.5 43.2069 107.379 43.0817 107.379 42.9291V41.122C107.379 40.9042 107.096 40.8202 106.987 41.0071C106.612 41.6484 106.115 42.1816 105.496 42.6068C104.628 43.2017 103.545 43.4984 102.244 43.4984C100.578 43.4984 99.2953 43.0423 98.3929 42.1319L98.3962 42.1336ZM103.65 39.8944C104.769 39.8944 105.658 39.5977 106.319 39.0027C106.977 38.4113 107.331 37.6928 107.379 36.8476V36.6042C107.379 36.4498 107.257 36.3263 107.108 36.3263H103.684C102.909 36.3263 102.326 36.4909 101.939 36.8184C101.551 37.1459 101.356 37.59 101.356 38.1472C101.356 39.3131 102.12 39.8961 103.65 39.8961V39.8944Z"/><path d="M115.431 26.9648H111.43C111.242 26.9648 111.11 27.1568 111.175 27.3385L116.794 43.0251C116.833 43.1348 116.935 43.2068 117.049 43.2068H121.327C121.439 43.2068 121.54 43.1365 121.58 43.0285L127.43 27.3419C127.499 27.1602 127.368 26.9648 127.177 26.9648H123.38C123.266 26.9648 123.164 27.0368 123.125 27.1465L119.462 37.4184C119.393 37.6105 119.127 37.607 119.063 37.4133L115.689 27.1533C115.651 27.0402 115.549 26.9648 115.431 26.9648Z"/></g></g></svg>