<svg width="270" height="248" viewBox="0 0 270 248" fill="none" xmlns="http://www.w3.org/2000/svg"><g opacity=".09" clip-path="url(#clip0_148_1078)" fill="#fff"><path d="M16.6516 91.2926C1.55575 99.1334 -4.33496 117.739 3.50587 132.837L44.6288 212.019L151.152 156.696L95.8295 50.1727L16.6516 91.2926ZM198.566 247.994H148.743L136.893 241.473L140.143 213.158L126.759 220.108L126.207 236.216L112.541 227.495L98.7584 234.651L122.814 247.994H63.3125L50.2071 222.759L156.73 167.437L198.566 247.994ZM98.3549 123.829L79.9013 133.414L89.5308 151.956L77.6941 158.103L68.0646 139.561L49.6229 149.139L43.5244 137.398L61.9721 127.819L52.3934 109.376L64.2286 103.228L73.8088 121.676L92.264 112.091L98.3579 123.827L98.3549 123.829ZM227.293 16.6142C219.452 1.5183 200.849 -4.36792 185.752 3.47291L106.574 44.5928L161.896 151.116L268.416 95.7965L227.293 16.6142ZM212.568 65.5854L167.624 88.927L160.699 75.5945L205.644 52.2528L212.568 65.5854Z"/><path fill-rule="evenodd" clip-rule="evenodd" d="M269.957 178.745V166.712L221.607 192.443L216.332 181.995L269.957 154.607V108.633L167.474 161.857L212.209 247.994L269.966 248L269.957 191.314L232.333 210.852L226.937 200.464L269.957 178.745Z"/></g><defs><clipPath id="clip0_148_1078"><path fill="#fff" d="M0 0H270V248H0z"/></clipPath></defs></svg>