<svg width="28" height="28" viewBox="0 0 28 28" fill="none" xmlns="http://www.w3.org/2000/svg"><path d="M0 12.8C0 8.31958 0 6.07937 0.871948 4.36808C1.63893 2.86278 2.86278 1.63893 4.36808 0.871948C6.07937 0 8.31958 0 12.8 0H15.2C19.6804 0 21.9206 0 23.6319 0.871948C25.1372 1.63893 26.3611 2.86278 27.1281 4.36808C28 6.07937 28 8.31958 28 12.8V15.2C28 19.6804 28 21.9206 27.1281 23.6319C26.3611 25.1372 25.1372 26.3611 23.6319 27.1281C21.9206 28 19.6804 28 15.2 28H12.8C8.31958 28 6.07937 28 4.36808 27.1281C2.86278 26.3611 1.63893 25.1372 0.871948 23.6319C0 21.9206 0 19.6804 0 15.2V12.8Z" fill="#2AABEE"/><path fill-rule="evenodd" clip-rule="evenodd" d="M7.10004 13.0783C11.395 11.2071 14.259 9.97342 15.692 9.37739C19.7835 7.6756 20.6337 7.37998 21.1878 7.37022C21.3097 7.36807 21.5822 7.39828 21.7587 7.54151C21.9077 7.66245 21.9488 7.82583 21.9684 7.9405C21.988 8.05516 22.0124 8.31638 21.993 8.52048C21.7713 10.8501 20.8119 16.5035 20.3238 19.1127C20.1173 20.2168 19.7107 20.5869 19.317 20.6232C18.4614 20.7019 17.8117 20.0577 16.9831 19.5146C15.6864 18.6646 14.9538 18.1354 13.6952 17.306C12.2405 16.3474 13.1835 15.8206 14.0125 14.9596C14.2294 14.7343 17.9991 11.3055 18.0721 10.9944C18.0812 10.9555 18.0897 10.8105 18.0035 10.7339C17.9174 10.6574 17.7902 10.6836 17.6985 10.7044C17.5684 10.7339 15.4969 12.1031 11.484 14.8119C10.896 15.2156 10.3635 15.4124 9.88628 15.4021C9.36024 15.3907 8.34834 15.1046 7.5961 14.8601C6.67345 14.5602 5.94014 14.4016 6.004 13.8923C6.03726 13.627 6.4026 13.3556 7.10004 13.0783Z" fill="#fff"/></svg>