<svg width="28" height="28" viewBox="0 0 28 28" fill="none" xmlns="http://www.w3.org/2000/svg"><path d="M0 12.8C0 8.31958 0 6.07937 0.871948 4.36808C1.63893 2.86278 2.86278 1.63893 4.36808 0.871948C6.07937 0 8.31958 0 12.8 0H15.2C19.6804 0 21.9206 0 23.6319 0.871948C25.1372 1.63893 26.3611 2.86278 27.1281 4.36808C28 6.07937 28 8.31958 28 12.8V15.2C28 19.6804 28 21.9206 27.1281 23.6319C26.3611 25.1372 25.1372 26.3611 23.6319 27.1281C21.9206 28 19.6804 28 15.2 28H12.8C8.31958 28 6.07937 28 4.36808 27.1281C2.86278 26.3611 1.63893 25.1372 0.871948 23.6319C0 21.9206 0 19.6804 0 15.2V12.8Z" fill="#07F"/><g clip-path="url(#clip0_204_7133)"><path d="M14.7145 18.7999C9.24792 18.7999 6.12992 15.1963 6 9.19995H8.73829C8.82823 13.6011 10.8469 15.4654 12.4459 15.8498V9.19995H15.0244V12.9957C16.6034 12.8324 18.2622 11.1026 18.8218 9.19995H21.4003C20.9705 11.5447 19.1717 13.2744 17.8925 13.9855C19.1717 14.5621 21.2205 16.0708 22 18.7999H19.1617C18.5521 16.9741 17.0332 15.5615 15.0244 15.3693V18.7999H14.7145Z" fill="#fff"/></g><defs><clipPath id="clip0_204_7133"><path fill="#fff" transform="translate(6 6)" d="M0 0H16V16H0z"/></clipPath></defs></svg>