<svg width="28" height="28" viewBox="0 0 28 28" fill="none" xmlns="http://www.w3.org/2000/svg"><path d="M0 12.8C0 8.31958 0 6.07937 0.871948 4.36808C1.63893 2.86278 2.86278 1.63893 4.36808 0.871948C6.07937 0 8.31958 0 12.8 0H15.2C19.6804 0 21.9206 0 23.6319 0.871948C25.1372 1.63893 26.3611 2.86278 27.1281 4.36808C28 6.07937 28 8.31958 28 12.8V15.2C28 19.6804 28 21.9206 27.1281 23.6319C26.3611 25.1372 25.1372 26.3611 23.6319 27.1281C21.9206 28 19.6804 28 15.2 28H12.8C8.31958 28 6.07937 28 4.36808 27.1281C2.86278 26.3611 1.63893 25.1372 0.871948 23.6319C0 21.9206 0 19.6804 0 15.2V12.8Z" fill="red"/><g clip-path="url(#clip0_204_7135)"><path fill-rule="evenodd" clip-rule="evenodd" d="M20.2602 9.30588C20.9456 9.47059 21.4859 9.95294 21.6704 10.5647C22.0131 11.6823 21.9999 14.0118 21.9999 14.0118C21.9999 14.0118 21.9999 16.3294 21.6704 17.447C21.4859 18.0588 20.9456 18.5412 20.2602 18.7059C19.0082 19 14 19 14 19C14 19 9.00493 19 7.7397 18.6941C7.05436 18.5294 6.514 18.047 6.32949 17.4353C6 16.3294 6 14 6 14C6 14 6 11.6823 6.32949 10.5647C6.514 9.95294 7.06754 9.45882 7.7397 9.29412C8.99175 9 14 9 14 9C14 9 19.0082 9 20.2602 9.30588ZM12.405 11.8587L16.5698 13.9998L12.405 16.141V11.8587Z" fill="#fff"/></g><defs><clipPath id="clip0_204_7135"><path fill="#fff" transform="translate(6 6)" d="M0 0H16V16H0z"/></clipPath></defs></svg>