<svg width="170" height="187" viewBox="0 0 170 187" fill="none" xmlns="http://www.w3.org/2000/svg"><g clip-path="url(#clip0_207_11405)"><path d="M84.9999 168.178C126.385 168.178 159.934 134.743 159.934 93.5C159.934 52.2566 126.385 18.8223 84.9999 18.8223C43.615 18.8223 10.0659 52.2566 10.0659 93.5C10.0659 134.743 43.615 168.178 84.9999 168.178Z" fill="#F1F2F6"/><path d="M146.162 26.6754C153.39 26.6754 159.249 20.827 159.249 13.6126C159.249 6.39823 153.39 0.549805 146.162 0.549805C138.935 0.549805 133.075 6.39823 133.075 13.6126C133.075 20.827 138.935 26.6754 146.162 26.6754Z" fill="#E0E6EF"/><path d="M27.5955 186.042C29.7638 186.042 31.5216 184.287 31.5216 182.123C31.5216 179.959 29.7638 178.204 27.5955 178.204C25.4272 178.204 23.6694 179.959 23.6694 182.123C23.6694 184.287 25.4272 186.042 27.5955 186.042Z" fill="#E0E6EF"/><path d="M64.1927 186.042C69.6921 186.042 74.1501 181.584 74.1501 176.084C74.1501 170.585 69.6921 166.127 64.1927 166.127C58.6934 166.127 54.2354 170.585 54.2354 176.084C54.2354 181.584 58.6934 186.042 64.1927 186.042Z" fill="#E0E6EF"/><mask id="mask0_207_11405" style="mask-type:alpha" maskUnits="userSpaceOnUse" x="9" y="-11" width="151" height="180"><path d="M84.7119 168.972C126.192 168.972 159.819 135.345 159.819 93.8648C159.819 75.3073 161.868 12.8022 150.715 -0.303737C136.939 -16.4927 107.635 -7.70059 84.7119 -7.70059C64.1639 -7.70059 33.6918 -6.56152 20.1311 6.80872C6.31663 20.4291 9.60469 72.9323 9.60469 93.8648C9.60469 135.345 43.2313 168.972 84.7119 168.972Z" fill="#11D392"/></mask><g mask="url(#mask0_207_11405)"><path d="M131.507 5.11816H42.8306C32.22 5.11816 23.6184 13.6517 23.6184 24.1785V242.18C23.6184 252.706 32.22 261.24 42.8306 261.24H131.507C142.117 261.24 150.719 252.706 150.719 242.18V24.1785C150.719 13.6517 142.117 5.11816 131.507 5.11816Z" fill="#E0E0E0"/><path d="M131.534 5.19092H42.8021C32.3003 5.19092 23.7869 13.637 23.7869 24.0558V242.197C23.7869 252.616 32.3003 261.062 42.8021 261.062H131.534C142.036 261.062 150.55 252.616 150.55 242.197V24.0558C150.55 13.637 142.036 5.19092 131.534 5.19092Z" fill="#E1E1E1"/><path d="M131.563 5.26123H42.7741C32.381 5.26123 23.9558 13.6199 23.9558 23.9307V242.213C23.9558 252.524 32.381 260.882 42.7741 260.882H131.563C141.956 260.882 150.381 252.524 150.381 242.213V23.9307C150.381 13.6199 141.956 5.26123 131.563 5.26123Z" fill="#E2E2E2"/><path d="M131.592 5.33301H42.7456C32.4613 5.33301 24.1243 13.6041 24.1243 23.8071V242.229C24.1243 252.432 32.4613 260.703 42.7456 260.703H131.592C141.876 260.703 150.213 252.432 150.213 242.229V23.8071C150.213 13.6041 141.876 5.33301 131.592 5.33301Z" fill="#E3E3E3"/><path d="M131.621 5.40527H42.7145C32.5399 5.40527 24.2917 13.5882 24.2917 23.6823V242.249C24.2917 252.343 32.5399 260.526 42.7145 260.526H131.621C141.795 260.526 150.043 252.343 150.043 242.249V23.6823C150.043 13.5882 141.795 5.40527 131.621 5.40527Z" fill="#E4E4E4"/><path d="M131.648 5.47754H42.686C32.6202 5.47754 24.4602 13.573 24.4602 23.5592V242.265C24.4602 252.251 32.6202 260.347 42.686 260.347H131.648C141.714 260.347 149.874 252.251 149.874 242.265V23.5592C149.874 13.573 141.714 5.47754 131.648 5.47754Z" fill="#E5E5E5"/><path d="M131.677 5.54785H42.6582C32.7012 5.54785 24.6294 13.5558 24.6294 23.4341V242.281C24.6294 252.159 32.7012 260.167 42.6582 260.167H131.677C141.634 260.167 149.706 252.159 149.706 242.281V23.4341C149.706 13.5558 141.634 5.54785 131.677 5.54785Z" fill="#E6E6E6"/><path d="M131.706 5.62012H42.6295C32.7812 5.62012 24.7976 13.5406 24.7976 23.311V242.299C24.7976 252.07 32.7812 259.99 42.6295 259.99H131.706C141.554 259.99 149.538 252.07 149.538 242.299V23.311C149.538 13.5406 141.554 5.62012 131.706 5.62012Z" fill="#E7E7E7"/><path d="M131.735 5.69287H42.6017C32.8622 5.69287 24.9668 13.5259 24.9668 23.1883V242.316C24.9668 251.979 32.8622 259.812 42.6017 259.812H131.735C141.474 259.812 149.369 251.979 149.369 242.316V23.1883C149.369 13.5259 141.474 5.69287 131.735 5.69287Z" fill="#E8E8E8"/><path d="M131.762 5.76465H42.5732C32.9425 5.76465 25.1353 13.5102 25.1353 23.0647V242.334C25.1353 251.888 32.9425 259.634 42.5732 259.634H131.762C141.393 259.634 149.2 251.888 149.2 242.334V23.0647C149.2 13.5102 141.393 5.76465 131.762 5.76465Z" fill="#E9E9E9"/><path d="M131.791 5.83545H42.5459C33.024 5.83545 25.3049 13.4935 25.3049 22.9401V242.349C25.3049 251.795 33.024 259.453 42.5459 259.453H131.791C141.313 259.453 149.032 251.795 149.032 242.349V22.9401C149.032 13.4935 141.313 5.83545 131.791 5.83545Z" fill="#EAEAEA"/><path d="M131.821 5.90771H42.5174C33.1043 5.90771 25.4734 13.4783 25.4734 22.817V242.367C25.4734 251.705 33.1043 259.276 42.5174 259.276H131.821C141.234 259.276 148.865 251.705 148.865 242.367V22.817C148.865 13.4783 141.234 5.90771 131.821 5.90771Z" fill="#EBEBEB"/><path d="M131.847 5.97998H42.4872C33.1828 5.97998 25.6401 13.463 25.6401 22.6939V242.383C25.6401 251.614 33.1828 259.097 42.4872 259.097H131.847C141.151 259.097 148.694 251.614 148.694 242.383V22.6939C148.694 13.463 141.151 5.97998 131.847 5.97998Z" fill="#ECECEC"/><path d="M131.876 6.05225H42.4602C33.2646 6.05225 25.8101 13.4478 25.8101 22.5707V242.401C25.8101 251.524 33.2646 258.92 42.4602 258.92H131.876C141.072 258.92 148.526 251.524 148.526 242.401V22.5707C148.526 13.4478 141.072 6.05225 131.876 6.05225Z" fill="#EDEDED"/><path d="M131.906 6.12305H42.43C33.3441 6.12305 25.9785 13.4304 25.9785 22.4445V242.419C25.9785 251.434 33.3441 258.741 42.43 258.741H131.906C140.991 258.741 148.357 251.434 148.357 242.419V22.4445C148.357 13.4304 140.991 6.12305 131.906 6.12305Z" fill="#EEE"/><path d="M131.936 6.19531H42.4023C33.4251 6.19531 26.1477 13.4152 26.1477 22.3214V242.436C26.1477 251.342 33.4251 258.562 42.4023 258.562H131.936C140.913 258.562 148.19 251.342 148.19 242.436V22.3214C148.19 13.4152 140.913 6.19531 131.936 6.19531Z" fill="#EFEFEF"/><path d="M131.963 6.26758H42.3735C33.5052 6.26758 26.3159 13.4 26.3159 22.1982V242.454C26.3159 251.252 33.5052 258.385 42.3735 258.385H131.963C140.832 258.385 148.021 251.252 148.021 242.454V22.1982C148.021 13.4 140.832 6.26758 131.963 6.26758Z" fill="#F0F0F0"/><path d="M131.992 6.33984H42.3458C33.5862 6.33984 26.4851 13.3848 26.4851 22.0751V242.47C26.4851 251.161 33.5862 258.206 42.3458 258.206H131.992C140.751 258.206 147.852 251.161 147.852 242.47V22.0751C147.852 13.3848 140.751 6.33984 131.992 6.33984Z" fill="#F0F0F0"/><path d="M132.019 6.41016H42.317C33.6662 6.41016 26.6533 13.3676 26.6533 21.95V242.487C26.6533 251.069 33.6662 258.026 42.317 258.026H132.019C140.67 258.026 147.683 251.069 147.683 242.487V21.95C147.683 13.3676 140.67 6.41016 132.019 6.41016Z" fill="#F1F1F1"/><path d="M132.05 6.48242H42.29C33.7479 6.48242 26.8232 13.3524 26.8232 21.8269V242.505C26.8232 250.979 33.7479 257.849 42.29 257.849H132.05C140.592 257.849 147.517 250.979 147.517 242.505V21.8269C147.517 13.3524 140.592 6.48242 132.05 6.48242Z" fill="#F2F2F2"/><path d="M132.076 6.55518H42.26C33.8268 6.55518 26.9902 13.3376 26.9902 21.7042V242.522C26.9902 250.888 33.8268 257.671 42.26 257.671H132.076C140.51 257.671 147.346 250.888 147.346 242.522V21.7042C147.346 13.3376 140.51 6.55518 132.076 6.55518Z" fill="#F3F3F3"/><path d="M132.104 6.62549H42.2313C33.9068 6.62549 27.1584 13.3205 27.1584 21.5792V242.538C27.1584 250.796 33.9068 257.491 42.2313 257.491H132.104C140.428 257.491 147.177 250.796 147.177 242.538V21.5792C147.177 13.3205 140.428 6.62549 132.104 6.62549Z" fill="#F4F4F4"/><path d="M132.134 6.69775H42.2035C33.9878 6.69775 27.3276 13.3053 27.3276 21.456V242.554C27.3276 250.705 33.9878 257.312 42.2035 257.312H132.134C140.35 257.312 147.01 250.705 147.01 242.554V21.456C147.01 13.3053 140.35 6.69775 132.134 6.69775Z" fill="#F5F5F5"/><path d="M132.162 6.77002H42.175C34.0681 6.77002 27.4961 13.29 27.4961 21.3329V242.572C27.4961 250.615 34.0681 257.135 42.175 257.135H132.162C140.269 257.135 146.841 250.615 146.841 242.572V21.3329C146.841 13.29 140.269 6.77002 132.162 6.77002Z" fill="#F6F6F6"/><path d="M132.192 6.84229H42.1454C34.1481 6.84229 27.665 13.2741 27.665 21.2081V242.59C27.665 250.524 34.1481 256.956 42.1454 256.956H132.192C140.189 256.956 146.672 250.524 146.672 242.59V21.2081C146.672 13.2741 140.189 6.84229 132.192 6.84229Z" fill="#F7F7F7"/><path d="M132.22 6.91309H42.1176C34.2291 6.91309 27.8342 13.2574 27.8342 21.0835V242.607C27.8342 250.433 34.2291 256.777 42.1176 256.777H132.22C140.109 256.777 146.504 250.433 146.504 242.607V21.0835C146.504 13.2574 140.109 6.91309 132.22 6.91309Z" fill="#F8F8F8"/><path d="M132.25 6.98535H42.0898C34.3101 6.98535 28.0034 13.2422 28.0034 20.9604V242.625C28.0034 250.343 34.3101 256.6 42.0898 256.6H132.25C140.03 256.6 146.337 250.343 146.337 242.625V20.9604C146.337 13.2422 140.03 6.98535 132.25 6.98535Z" fill="#F9F9F9"/><path d="M132.277 7.05713H42.0596C34.3887 7.05713 28.1702 13.2265 28.1702 20.8368V242.641C28.1702 250.251 34.3887 256.421 42.0596 256.421H132.277C139.947 256.421 146.166 250.251 146.166 242.641V20.8368C146.166 13.2265 139.947 7.05713 132.277 7.05713Z" fill="#FAFAFA"/><path d="M132.304 7.12939H42.0311C34.469 7.12939 28.3386 13.2113 28.3386 20.7136V242.659C28.3386 250.161 34.469 256.243 42.0311 256.243H132.304C139.867 256.243 145.997 250.161 145.997 242.659V20.7136C145.997 13.2113 139.867 7.12939 132.304 7.12939Z" fill="#FBFBFB"/><path d="M132.333 7.2002H42.0031C34.5497 7.2002 28.5076 13.1946 28.5076 20.589V242.674C28.5076 250.068 34.5497 256.063 42.0031 256.063H132.333C139.786 256.063 145.828 250.068 145.828 242.674V20.589C145.828 13.1946 139.786 7.2002 132.333 7.2002Z" fill="#FCFCFC"/><path d="M132.362 7.27246H41.9746C34.63 7.27246 28.676 13.1794 28.676 20.4659V242.692C28.676 249.979 34.63 255.885 41.9746 255.885H132.362C139.707 255.885 145.661 249.979 145.661 242.692V20.4659C145.661 13.1794 139.707 7.27246 132.362 7.27246Z" fill="#FDFDFD"/><path d="M132.391 7.34473H41.9469C34.711 7.34473 28.8452 13.1641 28.8452 20.3428V242.708C28.8452 249.887 34.711 255.707 41.9469 255.707H132.391C139.626 255.707 145.492 249.887 145.492 242.708V20.3428C145.492 13.1641 139.626 7.34473 132.391 7.34473Z" fill="#FEFEFE"/><path d="M132.418 7.41699H41.9181C34.7911 7.41699 29.0134 13.1489 29.0134 20.2196V242.727C29.0134 249.797 34.7911 255.529 41.9181 255.529H132.418C139.545 255.529 145.323 249.797 145.323 242.727V20.2196C145.323 13.1489 139.545 7.41699 132.418 7.41699Z" fill="#fff"/><path d="M133.488 9.62061H40.8479C33.5526 9.62061 27.6387 15.4878 27.6387 22.7254V242.336C27.6387 249.573 33.5526 255.441 40.8479 255.441H133.488C140.783 255.441 146.697 249.573 146.697 242.336V22.7254C146.697 15.4878 140.783 9.62061 133.488 9.62061Z" fill="#FBFBFB"/><path d="M87.3916 77.6108L87.3916 87.9386" stroke="#F5C400" stroke-width="3.972" stroke-linecap="round"/><path d="M87.0945 96.6772L87.0945 96.6772" stroke="#F5C400" stroke-width="3.972" stroke-linecap="round"/><path d="M80.2148 60.9273C83.2726 55.631 90.9172 55.631 93.975 60.9273L115.303 97.8689C118.361 103.165 114.539 109.786 108.423 109.786H65.7666C59.651 109.786 55.8287 103.165 58.8865 97.869L80.2148 60.9273Z" stroke="#F5C400" stroke-width="3.972" stroke-linecap="round" stroke-linejoin="round"/></g><g filter="url(#filter0_d_207_11405)"><path fill-rule="evenodd" clip-rule="evenodd" d="M21.5 38.7692C27.1069 38.7692 31.6522 34.2736 31.6522 28.7279C31.6522 23.1822 27.1069 18.6865 21.5 18.6865C15.8932 18.6865 11.3479 23.1822 11.3479 28.7279C11.3479 34.2736 15.8932 38.7692 21.5 38.7692Z" fill="url(#paint0_linear_207_11405)"/></g><path d="M21.1553 33.3498V33.1221" stroke="#fff" stroke-width="1.707" stroke-linecap="round"/><path d="M21.1553 24.3833V29.9444" stroke="#fff" stroke-width="1.707" stroke-linecap="round"/></g><defs><linearGradient id="paint0_linear_207_11405" x1="41.804" y1="28.728" x2="21.723" y2="8.425" gradientUnits="userSpaceOnUse"><stop stop-color="#FF6C00"/><stop offset="1" stop-color="#FD0"/></linearGradient><clipPath id="clip0_207_11405"><path fill="#fff" transform="translate(.5 .55)" d="M0 0H169V185.9H0z"/></clipPath><filter id="filter0_d_207_11405" x="5.658" y="14.135" width="31.684" height="31.462" filterUnits="userSpaceOnUse" color-interpolation-filters="sRGB"><feFlood flood-opacity="0" result="BackgroundImageFix"/><feColorMatrix in="SourceAlpha" values="0 0 0 0 0 0 0 0 0 0 0 0 0 0 0 0 0 0 127 0" result="hardAlpha"/><feOffset dy="1.138"/><feGaussianBlur stdDeviation="2.845"/><feColorMatrix values="0 0 0 0 0 0 0 0 0 0 0 0 0 0 0 0 0 0 0.15 0"/><feBlend in2="BackgroundImageFix" result="effect1_dropShadow_207_11405"/><feBlend in="SourceGraphic" in2="effect1_dropShadow_207_11405" result="shape"/></filter></defs></svg>