<svg width="90" height="99" viewBox="0 0 90 99" fill="none" xmlns="http://www.w3.org/2000/svg"><path d="M87.4781 42.7804C93.6358 65.7612 79.7434 89.4507 56.4487 95.6925C42.0316 99.5556 27.392 95.8302 16.8678 86.982" stroke="url(#paint0_linear_308_791)" stroke-width="1.5" stroke-miterlimit="10"/><path d="M15.5715 87.0998C17.06 86.7009 17.9158 85.2167 17.5165 83.7264C17.1171 82.2362 15.6339 81.3787 14.1454 81.7775C12.6569 82.1764 11.8011 83.6606 12.2004 85.1509C12.4934 86.6696 14.083 87.4986 15.5715 87.0998Z" fill="#fff" stroke="url(#paint1_linear_308_791)" stroke-miterlimit="10"/><path d="M1.54773 33.9536C7.78867 10.6621 31.6568 -3.17949 54.8588 3.03745C69.2183 6.88508 79.9573 17.514 84.5777 30.578" stroke="url(#paint2_linear_308_791)" stroke-width="1.5" stroke-miterlimit="10"/><path d="M85.4589 25.9924C83.9704 25.5936 82.4872 26.4511 82.0879 27.9413C81.6886 29.4316 82.5443 30.9158 84.0328 31.3147C85.5213 31.7135 87.0046 30.856 87.4039 29.3658C87.9095 27.904 86.9474 26.3913 85.4589 25.9924Z" fill="#fff" stroke="url(#paint3_linear_308_791)" stroke-miterlimit="10"/><ellipse cx="45.206" cy="50.289" rx="32" ry="32.508" fill="url(#paint4_radial_308_791)"/><defs><linearGradient id="paint0_linear_308_791" x1="134.888" y1="62.685" x2="57.215" y2="142.329" gradientUnits="userSpaceOnUse"><stop offset=".29" stop-color="#004DF4" stop-opacity="0"/><stop offset=".423" stop-color="#004DF4" stop-opacity=".4"/><stop offset=".499" stop-color="#004DF4"/><stop offset=".65" stop-color="#3F66F2"/><stop offset=".953" stop-color="#3E65F2"/></linearGradient><linearGradient id="paint1_linear_308_791" x1="14.009" y1="81.329" x2="17.832" y2="96.367" gradientUnits="userSpaceOnUse"><stop stop-color="#7991ED"/><stop offset=".803" stop-color="#375EF0"/></linearGradient><linearGradient id="paint2_linear_308_791" x1="-27.82" y1="3.34" x2="73.612" y2="-30.799" gradientUnits="userSpaceOnUse"><stop offset=".304" stop-color="#004DF4" stop-opacity="0"/><stop offset=".423" stop-color="#004DF4" stop-opacity=".4"/><stop offset=".674" stop-color="#004DF4"/><stop offset=".79" stop-color="#365DF0"/></linearGradient><linearGradient id="paint3_linear_308_791" x1="86.316" y1="69.629" x2="88.135" y2="16.837" gradientUnits="userSpaceOnUse"><stop stop-color="#B8BED3"/><stop offset=".803" stop-color="#4067F3"/></linearGradient><radialGradient id="paint4_radial_308_791" cx="0" cy="0" r="1" gradientUnits="userSpaceOnUse" gradientTransform="matrix(126.33793 62.90444 -84.31474 169.33859 49.777 50.71)"><stop offset=".2" stop-color="#5175F5"/><stop offset=".39" stop-color="#3158EE"/><stop offset="1" stop-color="#224AEA"/></radialGradient></defs></svg>