<svg width="123" height="45" viewBox="0 0 123 45" fill="none" xmlns="http://www.w3.org/2000/svg"><g clip-path="url(#clip0_109_21590)" fill="#fff"><path fill-rule="evenodd" clip-rule="evenodd" d="M30.7973 14.1L9.99731 22.5C9.99731 22.5 9.99731 22.5 9.99731 22.6C9.99731 22.6 9.99731 22.6 9.99731 22.7L16.1973 25C16.1973 25 16.1973 25 16.2973 25L27.9973 16.4L17.5973 25.5V30.4C17.5973 30.4 17.5973 30.4 17.5973 30.5C17.5973 30.5 17.5973 30.5 17.6973 30.5C17.6973 30.5 17.6973 30.5 17.7973 30.5C17.7973 30.5 17.7973 30.5 17.8973 30.5L20.8973 26.8C20.8973 26.8 20.8973 26.8 20.9973 26.8C20.9973 26.8 20.9973 26.8 21.0973 26.8L24.8973 28.2C24.8973 28.2 24.9973 28.2 25.0973 28.2C25.0973 28.2 25.0973 28.2 25.1973 28.1L30.8973 14.2C30.8973 14.2 30.8973 14.2 30.8973 14.1C30.8973 14.1 30.8973 14.1 30.8973 14C30.8973 14 30.8973 14 30.7973 14C30.6973 14 30.7973 14 30.6973 14"/><path d="M37.3973 15.7H35.4973V27.2999H37.3973V15.7Z"/><path d="M43.2973 18.9999C42.3973 18.9999 41.4973 19.2999 40.8973 19.9999V19.0999H39.0973V27.2999H40.8973V21.8999C41.0973 21.4999 41.2973 21.1999 41.6973 20.8999C42.0973 20.6999 42.4973 20.4999 42.8973 20.5999C43.9973 20.5999 44.6973 21.3999 44.6973 22.6999V27.2999H46.4973V22.3999C46.4973 20.2999 45.2973 18.8999 43.2973 18.9999Z"/><path d="M53.7973 19.1001L51.3973 24.8001L48.8973 19.1001H46.8973L50.5973 27.3001H52.1973L55.7973 19.1001H53.7973Z"/><path d="M60.0973 19C59.2973 19 58.4973 19.3 57.7973 19.7C57.0973 20.2 56.5973 20.8 56.2973 21.6C55.9973 22.4 55.8973 23.2 56.0973 24.1C56.2973 24.9 56.6973 25.7 57.2973 26.3C57.8973 26.9 58.5973 27.3 59.3973 27.5C60.1973 27.7 61.0973 27.5 61.7973 27.2C62.5973 26.9 63.1973 26.3 63.6973 25.6C64.1973 24.9 64.3973 24.1 64.3973 23.2C64.3973 22.6 64.2973 22.1 64.0973 21.6C63.8973 21.1 63.5973 20.6 63.1973 20.2C62.7973 19.8 62.2973 19.5 61.7973 19.3C61.2973 19.1 60.6973 19 60.1973 19H60.0973ZM60.0973 25.8C58.6973 25.8 57.6973 24.7 57.6973 23.2C57.6973 21.7 58.6973 20.6 60.0973 20.6C61.4973 20.6 62.4973 21.7 62.4973 23.2C62.4973 24.7 61.4973 25.8 60.0973 25.8Z"/><path d="M67.3973 15.6001H65.5973V17.3001H67.3973V15.6001Z"/><path d="M67.3973 19.1001H65.5973V27.3001H67.3973V19.1001Z"/><path d="M72.9973 20.5999C73.4973 20.5999 73.8973 20.6999 74.2973 20.9999C74.6973 21.2999 74.9973 21.5999 75.1973 21.9999L76.6973 21.0999C75.9973 19.6999 74.5973 18.7999 72.8973 18.8999C70.4973 18.8999 68.6973 20.6999 68.6973 23.1999C68.6973 25.5999 70.4973 27.3999 72.9973 27.3999C73.7973 27.3999 74.4973 27.1999 75.1973 26.7999C75.8973 26.3999 76.3973 25.7999 76.7973 25.0999L75.2973 24.2999C75.0973 24.6999 74.7973 25.0999 74.3973 25.3999C73.9973 25.6999 73.5973 25.7999 73.0973 25.7999C71.6973 25.7999 70.6973 24.6999 70.5973 23.1999C70.5973 21.6999 71.5973 20.5999 72.9973 20.5999Z"/><path d="M81.8973 18.8999C79.4973 18.8999 77.6973 20.7999 77.6973 23.1999C77.6973 25.6999 79.4973 27.3999 81.8973 27.3999C83.5973 27.3999 84.7973 26.6999 85.5973 25.4999L84.1973 24.4999C83.7973 25.1999 82.9973 25.6999 81.8973 25.6999C80.5973 25.6999 79.4973 24.7999 79.3973 23.4999H85.6973C85.6973 23.1999 85.6973 23.0999 85.6973 22.8999C85.6973 20.2999 83.8973 18.8999 81.7973 18.8999H81.8973ZM79.4973 22.1999C79.6973 20.9999 80.7973 20.3999 81.7973 20.3999C82.7973 20.3999 83.7973 20.9999 83.9973 22.1999H79.4973Z"/><path d="M108.097 18.8C107.597 18.8 106.997 18.9 106.497 19.1C105.997 19.3 105.497 19.6 105.097 20C104.697 20.4 104.397 20.9 104.197 21.4C103.997 21.9 103.897 22.5 103.897 23C103.897 23.6 103.997 24.1001 104.197 24.7001C104.397 25.2001 104.697 25.7 105.097 26.1C105.497 26.5001 105.997 26.8 106.497 27C106.997 27.2 107.597 27.3 108.097 27.3C108.697 27.3 109.197 27.3 109.697 27C110.197 26.8 110.697 26.5001 111.097 26.1C111.497 25.7 111.797 25.2001 111.997 24.7001C112.197 24.2001 112.297 23.6 112.297 23.1C112.297 22.5001 112.197 22 111.997 21.4C111.797 20.9 111.497 20.4 111.097 20C110.697 19.6 110.197 19.3 109.697 19.1C109.197 18.9 108.597 18.8 108.097 18.8ZM108.097 25.6C106.697 25.6 105.697 24.5 105.697 23C105.697 21.5 106.697 20.4 108.097 20.4C109.497 20.4 110.497 21.5 110.497 23C110.497 24.5 109.497 25.6 108.097 25.6Z"/><path d="M100.797 18.9999V19.7999C100.197 19.1999 99.3973 18.8999 98.3973 18.8999C96.0973 18.8999 94.3973 20.6999 94.3973 22.9999C94.3973 25.2999 96.0973 27.0999 98.3973 27.0999C99.3973 27.0999 100.197 26.7999 100.797 26.0999V27.0999C100.797 28.3999 100.097 29.0999 99.1973 29.2999C96.8973 29.6999 95.4973 28.9999 95.4973 28.9999L94.8973 30.4999C95.6973 30.9999 98.2973 31.1999 99.4973 30.8999C101.197 30.5999 102.597 29.4999 102.597 27.1999V19.0999H100.797V18.9999ZM100.797 24.2999C100.397 24.9999 99.6973 25.3999 98.5973 25.3999C97.1973 25.3999 96.1973 24.2999 96.1973 22.8999C96.1973 21.4999 97.1973 20.3999 98.5973 20.3999C99.5973 20.3999 100.297 20.8999 100.797 21.4999V24.1999V24.2999Z"/><path d="M89.0973 25.7L91.4973 22.4C91.9973 21.8 92.7973 20.7 92.8973 20.4C93.5973 19.3 93.6973 18.1 93.0973 16.9C92.5973 15.9 91.7973 15.5 90.6973 15.3C89.1973 15.1 87.6973 15.8 87.0973 17.2C86.8973 17.5 86.7973 17.8 86.7973 18.2L88.2973 18.5C88.2973 18.5 88.2973 18.4 88.2973 18.3C88.2973 18 88.4973 17.7 88.6973 17.5C88.8973 17.3 89.0973 17.1 89.3973 17C89.9973 16.7 90.7973 16.8 91.1973 17.2C91.8973 17.8 91.8973 18.9 91.3973 19.6C91.3973 19.7 86.6973 25.6 86.6973 25.6C86.6973 25.6 86.6973 25.7 86.6973 25.8V27.1H93.4973V25.5H88.9973L89.0973 25.7Z"/></g><defs><clipPath id="clip0_109_21590"><path fill="#fff" transform="translate(9.024 13.5)" d="M0 0H104V18H0z"/></clipPath></defs></svg>