<svg width="123" height="45" viewBox="0 0 123 45" fill="none" xmlns="http://www.w3.org/2000/svg"><g clip-path="url(#clip0_109_21591)"><mask id="mask0_109_21591" style="mask-type:luminance" maskUnits="userSpaceOnUse" x="28" y="6" width="66" height="33"><path d="M93.5604 6H28.5604V39H93.5604V6Z" fill="#fff"/></mask><g mask="url(#mask0_109_21591)"><path d="M36.4638 25.5953C39.2873 28.0474 47.6318 32.14 47.7667 32.2025C48.8547 32.7286 47.1463 35.3054 46.292 35.2876C44.7993 35.2876 35.8344 29.9377 32.8041 27.2626C32.5703 29.266 32.4861 31.2836 32.5523 33.2992C32.5523 33.9679 31.4733 33.9858 30.4302 34.0482C29.3871 34.1106 28.6318 34.0482 28.5779 33.5221C28.2452 23.1343 32.7051 12.8178 38.8466 7.8691C42.6412 4.81072 49.1334 5.25654 48.1713 11.0702C47.371 15.8762 42.6772 22.5369 36.4818 25.5953H36.4638ZM33.5774 23.3572C40.3843 21.1102 46.5707 11.2039 44.5925 9.50975C42.6143 7.8156 36.0322 13.8432 33.5774 23.3572ZM92.2324 17.3563C91.3954 17.0621 90.2354 17.0442 90.0824 17.7486C89.0484 22.3675 87.2594 27.4321 85.1644 26.7901C84.2644 26.5048 83.6894 25.5239 85.6494 19.5676C85.8654 18.8989 85.3534 18.5779 84.5884 18.2926C83.8244 18.0073 82.9614 18.141 82.7904 18.6136C80.6954 23.7317 79.0224 26.6385 77.5124 26.3442C75.8214 26.0055 78.3664 20.6911 78.7434 19.9243C79.1214 19.1575 78.1234 18.7651 77.6284 18.569C77.1344 18.3728 76.3254 18.034 76.0464 18.569C75.9384 18.7473 75.6954 19.2377 75.5514 19.5231C75.6324 17.4099 73.5914 16.1972 71.4155 17.1334C67.4501 18.8454 65.319 23.1967 65.0492 25.7647C64.8873 27.2716 65.283 28.9657 66.7936 29.679C69.6261 31.0076 72.7373 27.6461 73.5914 25.8806C73.5016 27.9939 74.8774 29.2957 76.6214 29.2332C79.0044 29.153 80.7224 26.8436 81.2074 25.8182C80.8304 29.3045 84.1664 30.6331 86.6024 28.939C85.1604 31.7 83.3454 34.2529 81.2074 36.527C80.5964 37.1957 81.4414 38.0339 81.7474 38.3103C82.2504 38.8007 82.9884 39.202 83.4194 38.8899C84.7234 37.9982 87.2864 35.1627 90.1364 29.6077C91.7084 26.2575 92.8414 22.7216 93.5084 19.0861C93.6884 18.1945 93.4274 17.7576 92.2684 17.3563H92.2324ZM68.8888 26.3978C68.1604 25.8895 68.8888 23.6604 69.734 22.3407C70.903 20.4237 72.7013 19.0059 73.4746 19.6122C74.6704 20.5039 73.016 22.8668 72.1708 24.2667C71.3256 25.6666 69.8329 27.0576 68.8888 26.3978ZM59.1055 24.1508C56.354 28.6715 52.8111 30.0803 50.3563 30.1516C49.6269 30.1867 48.8984 30.0659 48.2202 29.7976C47.5418 29.5293 46.9297 29.1195 46.4249 28.5962C45.9202 28.0728 45.5347 27.4481 45.2946 26.7642C45.0544 26.0803 44.9653 25.3533 45.0331 24.6323C45.1436 23.0105 45.7067 21.4512 46.6595 20.1285C47.6122 18.8059 48.9171 17.772 50.4283 17.1423C53.4226 16.0367 56.1471 18.2034 55.5627 20.709C55.4141 21.4519 55.1176 22.1579 54.6907 22.7858C54.2637 23.4138 53.7148 23.951 53.076 24.3661C52.4372 24.7813 51.7213 25.0659 50.9702 25.2034C50.2192 25.341 49.448 25.3287 48.7019 25.1673C48.8547 26.9506 50.779 27.9403 53.4946 26.5583C55.293 25.6666 57.2891 23.8833 59.1774 19.3715C60.5801 15.9832 62.5764 9.01934 63.4666 7.47677C63.7274 7.03094 64.6536 7.15578 65.4448 7.53919C66.2361 7.92261 67.0454 8.47542 66.7936 9.17092C65.1525 13.2814 63.8914 17.5313 63.026 21.8682C62.3176 25.4103 62.4066 29.0639 63.2867 32.568C63.4846 33.3081 62.5405 33.7718 61.965 33.8877C61.6176 33.99 61.2465 33.9813 60.9044 33.8629C60.5623 33.7445 60.2664 33.5223 60.0586 33.2279C58.566 30.5529 58.7278 27.2626 59.0785 24.1686L59.1055 24.1508ZM48.6389 23.1521C51.4084 24.0438 53.8632 21.0389 53.0089 19.8173C52.1547 18.5957 49.0076 19.9421 48.6389 23.1521Z" fill="#fff"/></g></g><defs><clipPath id="clip0_109_21591"><path fill="#fff" transform="translate(28.024 5.5)" d="M0 0H66V34H0z"/></clipPath></defs></svg>