<svg width="123" height="45" viewBox="0 0 123 45" fill="none" xmlns="http://www.w3.org/2000/svg"><g clip-path="url(#clip0_109_21592)"><mask id="mask0_109_21592" style="mask-type:luminance" maskUnits="userSpaceOnUse" x="20" y="10" width="83" height="25"><path d="M102.042 10H20.042V35H102.042V10Z" fill="#fff"/></mask><g mask="url(#mask0_109_21592)"><mask id="mask1_109_21592" style="mask-type:luminance" maskUnits="userSpaceOnUse" x="20" y="10" width="83" height="25"><path d="M102.042 10H20.042V35H102.042V10Z" fill="#fff"/></mask><g mask="url(#mask1_109_21592)" fill="#fff"><path d="M39.9199 34.7256C39.508 34.6982 39.1983 34.3295 39.1983 33.9077V21.4326C39.1983 21.3554 39.1062 21.316 39.0542 21.3708L26.2552 34.4753C25.9639 34.7736 25.49 34.8096 25.1803 34.5301C24.8404 34.2249 24.8287 33.6951 25.1435 33.3728L39.4243 18.7493C39.6888 18.4784 40.1142 18.4338 40.4322 18.6722C40.6349 18.823 40.7454 19.0716 40.7454 19.3271V33.9334C40.7454 34.3878 40.3703 34.7547 39.9199 34.7239V34.7256Z"/><path d="M43.3642 34.7256C42.9523 34.6981 42.6425 34.3295 42.6425 33.9077V12.9197C42.6425 12.8409 42.5488 12.8014 42.4935 12.8563L21.3812 34.4752C21.0899 34.7735 20.616 34.8095 20.3063 34.5301C19.9664 34.2249 19.9546 33.6951 20.2694 33.3727L42.8686 10.2313C43.1331 9.96037 43.5584 9.9158 43.8766 10.1542C44.0792 10.305 44.1897 10.5537 44.1897 10.8091V33.9351C44.1897 34.3895 43.8146 34.7564 43.3642 34.7256Z"/><path d="M36.4755 34.7241C36.0636 34.6967 35.7538 34.328 35.7538 33.9062V29.9593C35.7538 29.8804 35.66 29.841 35.6065 29.8976L31.1376 34.4738C30.8463 34.7721 30.3724 34.8081 30.0626 34.5286C29.7227 34.2234 29.711 33.6936 30.0258 33.3713L35.9832 27.2709C36.2478 26.9999 36.6731 26.9554 36.9913 27.1937C37.1938 27.3446 37.3043 27.5932 37.3043 27.8487V33.932C37.3043 34.3863 36.9292 34.7532 36.4789 34.7224L36.4755 34.7241Z"/><path d="M54.3983 10.0669C54.5021 10.0669 54.5993 10.1235 54.6512 10.2161L64.6941 27.9652C64.8113 28.1727 65.1194 28.087 65.1194 27.8487V10.367C65.1194 10.2007 65.2501 10.0669 65.4124 10.0669H69.3657C69.5281 10.0669 69.6587 10.2007 69.6587 10.367V34.4188C69.6587 34.5852 69.5281 34.7189 69.3657 34.7189H63.6276C63.5238 34.7189 63.4266 34.6623 63.3747 34.5697L53.4038 16.8703C53.2866 16.6628 52.9785 16.7486 52.9785 16.9869V34.4205C52.9785 34.5869 52.8478 34.7206 52.6855 34.7206H48.6954C48.533 34.7206 48.4024 34.5869 48.4024 34.4205V10.367C48.4024 10.2007 48.533 10.0669 48.6954 10.0669H54.3983Z"/><path fill-rule="evenodd" clip-rule="evenodd" d="M72.4382 33.6336C71.5357 32.7231 71.0869 31.5521 71.0869 30.1188C71.0869 28.4676 71.6562 27.1508 72.7981 26.1666C73.9384 25.1825 75.581 24.6921 77.726 24.6921H81.034C81.204 24.6921 81.334 24.5327 81.302 24.363C81.153 23.5742 80.822 22.9502 80.31 22.4889C79.728 21.9677 79.092 21.7054 78.203 21.7054C76.303 21.7054 75.616 22.1683 74.936 23.8931C74.884 24.0252 74.74 24.0955 74.607 24.0543L71.4888 23.0839C71.3398 23.0376 71.2594 22.8713 71.313 22.7221C71.7868 21.3745 72.3277 20.4212 73.4277 19.557C74.712 18.5471 76.274 18.0996 78.305 18.0996C80.839 18.0996 82.466 18.7255 83.732 19.9754C84.998 21.2253 85.631 22.9193 85.631 25.0556V34.4291C85.631 34.5834 85.508 34.7069 85.359 34.7069H81.692C81.542 34.7069 81.421 34.5817 81.421 34.4291V32.622C81.421 32.4042 81.138 32.3202 81.029 32.5071C80.654 33.1484 80.157 33.6816 79.538 34.1068C78.67 34.7017 77.587 34.9984 76.286 34.9984C74.62 34.9984 73.3373 34.5423 72.4349 33.6319L72.4382 33.6336ZM77.692 31.3944C78.811 31.3944 79.7 31.0977 80.361 30.5027C81.019 29.9113 81.373 29.1928 81.421 28.3476V28.1042C81.421 27.9498 81.299 27.8263 81.15 27.8263H77.726C76.951 27.8263 76.368 27.9909 75.981 28.3184C75.593 28.6459 75.398 29.09 75.398 29.6472C75.398 30.8131 76.162 31.3961 77.692 31.3961V31.3944Z"/><path d="M89.473 18.4648H85.472C85.284 18.4648 85.152 18.6568 85.217 18.8385L90.836 34.5251C90.875 34.6348 90.977 34.7068 91.091 34.7068H95.369C95.481 34.7068 95.582 34.6365 95.622 34.5285L101.472 18.8419C101.541 18.6602 101.41 18.4648 101.219 18.4648H97.422C97.308 18.4648 97.206 18.5368 97.167 18.6465L93.504 28.9184C93.435 29.1105 93.169 29.107 93.105 28.9133L89.731 18.6533C89.693 18.5402 89.591 18.4648 89.473 18.4648Z"/></g></g></g><defs><clipPath id="clip0_109_21592"><path fill="#fff" transform="translate(20.005 9.5)" d="M0 0H82.037V26H0z"/></clipPath></defs></svg>