<svg width="123" height="45" viewBox="0 0 123 45" fill="none" xmlns="http://www.w3.org/2000/svg"><g clip-path="url(#clip0_109_21593)"><mask id="mask0_109_21593" style="mask-type:luminance" maskUnits="userSpaceOnUse" x="31" y="5" width="61" height="35"><path d="M91.0605 5.14844H31.0584V39.7916H91.0605V5.14844Z" fill="#fff"/></mask><g mask="url(#mask0_109_21593)" fill="#fff"><path d="M56.2431 39.7917C48.2511 39.7917 40.2641 39.7917 32.2721 39.7917C31.696 39.7917 31.3347 39.5329 31.1834 38.9764C31.1199 38.7518 31.0809 38.5126 31.0809 38.2831C31.076 32.5955 31.0662 26.9079 31.0858 21.2202C31.0906 19.5066 31.2322 17.8028 31.5056 16.1087C31.7302 14.7271 32.0426 13.3699 32.5553 12.0712C33.4389 9.83523 34.7913 7.97028 36.8564 6.67653C38.0183 5.94422 39.2925 5.50971 40.6449 5.29002C41.6115 5.12891 42.5831 5.14844 43.5595 5.14844C55.6817 5.14844 67.8087 5.13867 79.9314 5.1582C82.1574 5.1582 84.2024 5.80752 85.9994 7.15985C87.5514 8.32667 88.6404 9.85476 89.4024 11.627C90.0614 13.1599 90.4664 14.7564 90.6664 16.4065C90.7884 17.3878 90.9154 18.374 90.9544 19.3602C91.0234 20.9908 91.0764 22.6263 91.0424 24.2569C90.9934 26.4831 90.7834 28.6947 90.2324 30.8623C89.7144 32.8933 88.8994 34.7778 87.5084 36.3742C85.8674 38.2538 83.7924 39.3328 81.3324 39.6843C80.8044 39.7575 80.2634 39.7868 79.7304 39.7868C71.9048 39.7917 64.074 39.7868 56.248 39.7868L56.2431 39.7917ZM73.2327 22.4847C73.3157 23.8614 73.3743 25.2431 73.4866 26.6198C73.6087 28.0893 73.8723 29.5344 74.4584 30.9014C75.0534 32.2977 75.9964 33.3473 77.4904 33.8014C78.7784 34.1919 80.0874 34.1968 81.3904 33.8746C82.5084 33.5963 83.4024 32.9861 84.0664 32.0438C84.5294 31.3847 84.8424 30.6573 85.0714 29.8908C85.5944 28.1333 85.7744 26.322 85.8334 24.501C85.9114 22.1039 85.9114 19.7019 85.5554 17.3195C85.3744 16.1087 85.1154 14.9224 84.5884 13.8092C83.8754 12.3104 82.7384 11.3389 81.0974 11.0069C80.2044 10.8263 79.3064 10.8116 78.4024 10.9435C76.7914 11.1729 75.5714 11.9785 74.7754 13.4089C74.0774 14.6685 73.7795 16.0501 73.5842 17.4513C73.3499 19.1209 73.2816 20.8004 73.2327 22.4896V22.4847ZM43.9061 25.4042C43.9012 25.4725 43.8963 25.5262 43.8914 25.5848C43.8622 26.2097 43.8475 26.8346 43.7938 27.4595C43.7352 28.1333 43.6327 28.8021 43.2519 29.388C42.7686 30.13 41.7482 30.174 41.2356 29.4514C41.0354 29.1731 40.8939 28.8412 40.8011 28.5092C40.4642 27.318 40.4496 26.0828 40.4154 24.8574C40.3812 23.7101 40.3715 22.5628 40.4008 21.4155C40.4398 20.0583 40.5082 18.706 40.6156 17.3536C40.6644 16.7141 40.8597 16.0989 41.2454 15.557C41.7336 14.8687 43.1835 14.649 43.6815 15.8011C43.7401 15.9427 43.8036 16.0843 43.8426 16.2356C44.1014 17.1535 44.1356 18.0957 44.1453 19.038C44.1453 19.2039 44.1453 19.3748 44.1453 19.5359H48.2658C48.2658 19.4236 48.2658 19.3358 48.2658 19.2479C48.2365 18.54 48.2267 17.8321 48.1633 17.1291C48.0559 15.9183 47.8459 14.7271 47.3284 13.614C46.7084 12.2714 45.7027 11.3731 44.243 11.0411C43.0517 10.7677 41.8507 10.7824 40.6693 11.0899C39.5366 11.3829 38.6481 12.0322 37.9939 13.0037C37.5984 13.5944 37.3153 14.2438 37.1054 14.9224C36.6269 16.4504 36.4219 18.0322 36.3438 19.6238C36.2168 22.143 36.2022 24.6621 36.5195 27.1764C36.6904 28.5531 36.954 29.9055 37.5545 31.1699C38.2722 32.6834 39.3999 33.6842 41.0843 33.9869C42.0997 34.1724 43.1103 34.1333 44.1111 33.8892C45.1657 33.6305 46.0103 33.0642 46.6303 32.1659C47.0355 31.5751 47.304 30.9258 47.4895 30.2374C47.9143 28.6801 48.0168 27.0836 48.0119 25.4823C48.0119 25.4628 47.9973 25.4384 47.9826 25.4042H43.9061ZM71.2067 11.1339C71.0895 11.1339 71.0016 11.1339 70.9137 11.1339C68.0236 11.1339 65.1383 11.1339 62.2481 11.129C61.9942 11.129 61.9356 11.1973 61.9356 11.4414C61.9405 18.7987 61.9356 26.1511 61.9405 33.5084C61.9405 33.6012 61.9503 33.6988 61.9551 33.8062H71.1969V29.6906C71.0797 29.6906 70.9821 29.6906 70.8845 29.6906C69.332 29.6906 67.7746 29.6858 66.2221 29.6955C65.9829 29.6955 65.9243 29.6223 65.9243 29.3928C65.934 27.8794 65.934 26.366 65.9243 24.8525C65.9243 24.6084 65.9829 24.5352 66.2367 24.5352C67.7013 24.5449 69.166 24.5352 70.6306 24.5449C70.8552 24.5449 70.943 24.4961 70.9382 24.252C70.9284 23.0657 70.9284 21.8744 70.9382 20.6881C70.9382 20.4782 70.8845 20.4098 70.6648 20.4098C69.1855 20.4196 67.7013 20.4098 66.2221 20.4196C65.9829 20.4196 65.9243 20.3463 65.9243 20.1169C65.934 18.6034 65.934 17.09 65.9243 15.5766C65.9243 15.3325 65.9829 15.2592 66.2367 15.2592C67.7892 15.269 69.3466 15.2641 70.8991 15.2641C70.9967 15.2641 71.0895 15.2641 71.2018 15.2641V11.1339H71.2067ZM50.6971 11.1485V33.8062H59.7045V29.6906H59.4262C57.9714 29.6906 56.5116 29.6906 55.0568 29.6906C54.6662 29.6906 54.676 29.7492 54.676 29.3098C54.676 23.3781 54.676 17.4513 54.676 11.5196C54.676 5.58782 54.676 11.2803 54.676 11.1485H50.7019H50.6971Z"/><path d="M81.7684 22.5141C81.7054 23.8713 81.6614 25.2285 81.5684 26.5809C81.5194 27.3327 81.3924 28.0797 81.0904 28.7827C80.8844 29.2514 80.6064 29.6517 80.1134 29.8519C79.4394 30.1301 78.7074 29.8714 78.2974 29.2172C77.9994 28.7387 77.8434 28.2115 77.7454 27.6647C77.4284 25.9218 77.3994 24.1545 77.4184 22.392C77.4334 21.1178 77.4724 19.8387 77.5744 18.5694C77.6384 17.8224 77.8334 17.0852 78.0044 16.3529C78.0634 16.099 78.2144 15.8549 78.3604 15.6401C78.9564 14.7711 80.1524 14.7613 80.7824 15.6108C81.1144 16.06 81.2994 16.5775 81.3784 17.1145C81.5004 18.0079 81.5924 18.9013 81.6704 19.7997C81.7104 20.2537 81.7054 20.7077 81.7144 21.1666C81.7194 21.6158 81.7144 22.0601 81.7144 22.5092C81.7294 22.5092 81.7494 22.5092 81.7634 22.5092L81.7684 22.5141Z"/></g></g><defs><clipPath id="clip0_109_21593"><path fill="#fff" transform="translate(30.524 5)" d="M0 0H61V35H0z"/></clipPath></defs></svg>